<?xml version="1.0" encoding="utf-8"?>
<!-- Generator: Adobe Illustrator 23.0.0, SVG Export Plug-In . SVG Version: 6.00 Build 0)  -->
<svg version="1.1" xmlns="http://www.w3.org/2000/svg" xmlns:xlink="http://www.w3.org/1999/xlink" x="0px" y="0px"
	 viewBox="0 0 1120.6 777.9" style="enable-background:new 0 0 1120.6 777.9;" xml:space="preserve">
<style type="text/css">
	.st0{fill:#F2F2F2;}
	.st1{fill:#3F3D56;}
	.st2{fill:#FFBD07;}
	.st3{fill:#B0BEC5;}
	.st4{fill:url(#SVGID_1_);}
	.st5{fill:#ECEFF1;}
	.st6{fill:#64FFDA;}
	.st7{opacity:0.7;}
	.st8{opacity:0.6;}
	.st9{opacity:0.5;}
	.st10{opacity:0.4;}
	.st11{opacity:0.3;}
	.st12{fill:url(#SVGID_2_);}
	.st13{fill:url(#SVGID_3_);}
	.st14{fill:url(#SVGID_4_);}
	.st15{fill:url(#SVGID_5_);}
	.st16{fill:url(#SVGID_6_);}
	.st17{fill:url(#SVGID_7_);}
	.st18{fill:url(#SVGID_8_);}
	.st19{fill:url(#SVGID_9_);}
	.st20{fill:url(#SVGID_10_);}
	.st21{fill:url(#SVGID_11_);}
	.st22{fill:url(#SVGID_12_);}
	.st23{opacity:0.2;}
	.st24{fill:url(#SVGID_13_);}
	.st25{fill:url(#SVGID_14_);}
	.st26{fill:url(#SVGID_15_);}
	.st27{fill:url(#SVGID_16_);}
	.st28{fill:url(#SVGID_17_);}
	.st29{fill:url(#SVGID_18_);}
	.st30{fill:url(#SVGID_19_);}
	.st31{fill:url(#SVGID_20_);}
	.st32{fill:url(#SVGID_21_);}
	.st33{fill:url(#SVGID_22_);}
	.st34{fill:url(#SVGID_23_);}
	.st35{fill:url(#SVGID_24_);}
	.st36{fill:url(#SVGID_25_);}
	.st37{fill:url(#SVGID_26_);}
	.st38{fill:#C68863;}
	.st39{fill:#263238;}
	.st40{fill:#5CAADE;}
	.st41{opacity:0.2;fill:#FFFFFF;enable-background:new    ;}
	.st42{fill:#FFFFFF;}
	.st43{fill:url(#SVGID_27_);}
</style>
<g id="a706cf1c-1654-439b-8fcf-310eb7aa0e00">
	<title>not found</title>
	<path class="st0" d="M455.2,388.6c0,151.7-90.2,204.7-201.5,204.7s-201.5-53-201.5-204.7S253.7,43.8,253.7,43.8
		S455.2,236.8,455.2,388.6z"/>
	<polygon class="st1" points="246.4,570.2 248.4,443.1 334.3,286 248.7,423.2 249.7,366.1 308.9,252.4 249.9,351 249.9,351 
		251.6,248.3 314.9,157.8 251.8,232.1 252.9,43.8 246.3,293.1 246.9,282.9 182.4,184.2 245.8,302.6 239.8,417.3 239.6,414.2 
		165.4,310.4 239.4,425 238.6,439.3 238.5,439.5 238.5,440.7 223.4,731.7 243.7,731.7 246.2,581.4 320,467.2 	"/>
	<path class="st0" d="M1054.7,450.8c0,124.2-73.9,167.6-164.9,167.6s-165-43.4-165-167.6s164.9-282.3,164.9-282.3
		S1054.7,326.6,1054.7,450.8z"/>
	<polygon class="st1" points="883.8,599.3 885.5,495.4 955.7,366.8 885.7,479.1 886.5,432.3 934.9,339.2 886.7,419.9 886.7,419.9 
		888,335.9 939.9,261.9 888.3,322.7 889.1,168.5 883.8,372.6 884.2,364.2 831.4,283.5 883.4,380.3 878.4,474.2 878.2,471.7 
		817.4,386.8 878,480.5 877.4,492.3 877.3,492.5 877.4,493.4 865,731.6 881.6,731.6 883.6,608.5 944.1,515.1 	"/>
	<ellipse class="st1" cx="560.3" cy="727.6" rx="557.3" ry="28.1"/>
	<path class="st2" d="M994.4,663c0,55.4-32.9,74.7-73.5,74.7c-0.9,0-1.9,0-2.8,0c-1.9,0-3.7-0.1-5.6-0.3
		c-36.7-2.6-65.1-22.9-65.1-74.4c0-53.3,68-120.5,73.2-125.4l0,0c0.2-0.2,0.3-0.3,0.3-0.3S994.4,607.7,994.4,663z"/>
	<path class="st1" d="M918.2,729.2l26.8-37.6l-26.9,41.7l-0.1,4.3c-1.9,0-3.7-0.1-5.6-0.3l2.9-55.4v-0.4v-0.1l0.3-5.2l-26.9-41.7
		l27.1,37.9l0.1,1.1l2.2-41.8L895,588.5l23.4,35.9l2.3-86.7v-0.3v0.3l-0.4,68.4l23-27.1l-23.1,33l-0.6,37.5l21.5-36l-21.7,41.4
		l-0.3,20.8l31.3-50L919,682.9L918.2,729.2z"/>
</g>
<g id="Layer_2">
	<title>maintenance</title>
	<rect x="515.3" y="343.8" class="st3" width="7.4" height="5"/>
	<rect x="525.2" y="343.8" class="st3" width="7.4" height="5"/>
	<rect x="535.1" y="343.8" class="st3" width="7.4" height="5"/>
	<rect x="545.1" y="343.8" class="st3" width="7.4" height="5"/>
	<rect x="555" y="343.8" class="st3" width="7.4" height="5"/>
	<rect x="564.9" y="343.8" class="st3" width="7.4" height="5"/>
	<rect x="574.8" y="343.8" class="st3" width="7.4" height="5"/>
	<rect x="584.7" y="343.8" class="st3" width="7.4" height="5"/>
	<rect x="594.6" y="343.8" class="st3" width="7.4" height="5"/>
	<rect x="604.5" y="343.8" class="st3" width="7.4" height="5"/>
	
		<linearGradient id="SVGID_1_" gradientUnits="userSpaceOnUse" x1="614.8127" y1="73.9028" x2="614.8127" y2="430.8745" gradientTransform="matrix(1 0 0 -1 0 778.0787)">
		<stop  offset="0" style="stop-color:#808080;stop-opacity:0.25"/>
		<stop  offset="0.54" style="stop-color:#808080;stop-opacity:0.12"/>
		<stop  offset="1" style="stop-color:#808080;stop-opacity:0.1"/>
	</linearGradient>
	<rect x="454.9" y="347.2" class="st4" width="319.8" height="357"/>
	<rect x="460.2" y="585.5" class="st5" width="309.3" height="110.9"/>
	<rect x="485.6" y="611.8" class="st6" width="12" height="56.8"/>
	<g class="st7">
		<rect x="509.2" y="611.8" class="st6" width="12" height="56.8"/>
	</g>
	<g class="st8">
		<rect x="532.9" y="611.8" class="st6" width="12" height="56.8"/>
	</g>
	<g class="st9">
		<rect x="556.5" y="611.8" class="st6" width="12" height="56.8"/>
	</g>
	<g class="st9">
		<rect x="580.2" y="611.8" class="st6" width="12" height="56.8"/>
	</g>
	<g class="st10">
		<rect x="603.9" y="611.8" class="st6" width="12" height="56.8"/>
	</g>
	<g class="st11">
		<rect x="627.5" y="611.8" class="st6" width="12" height="56.8"/>
	</g>
	<circle class="st2" cx="725.7" cy="639.9" r="28.9"/>
	<rect x="460.2" y="470.4" class="st5" width="309.3" height="110.9"/>
	<rect x="485.6" y="496.7" class="st6" width="12" height="56.8"/>
	<g class="st7">
		<rect x="509.2" y="496.7" class="st6" width="12" height="56.8"/>
	</g>
	<g class="st8">
		<rect x="532.9" y="496.7" class="st6" width="12" height="56.8"/>
	</g>
	<g class="st9">
		<rect x="556.5" y="496.7" class="st6" width="12" height="56.8"/>
	</g>
	<g class="st9">
		<rect x="580.2" y="496.7" class="st6" width="12" height="56.8"/>
	</g>
	<g class="st10">
		<rect x="603.9" y="496.7" class="st6" width="12" height="56.8"/>
	</g>
	<g class="st11">
		<rect x="627.5" y="496.7" class="st6" width="12" height="56.8"/>
	</g>
	<circle class="st2" cx="725.7" cy="524.7" r="28.9"/>
	<rect x="460.2" y="355.2" class="st5" width="309.3" height="110.9"/>
	<rect x="485.6" y="381.5" class="st6" width="12" height="56.8"/>
	<g class="st7">
		<rect x="509.2" y="381.5" class="st6" width="12" height="56.8"/>
	</g>
	<g class="st8">
		<rect x="532.9" y="381.5" class="st6" width="12" height="56.8"/>
	</g>
	<g class="st9">
		<rect x="556.5" y="381.5" class="st6" width="12" height="56.8"/>
	</g>
	<g class="st9">
		<rect x="580.2" y="381.5" class="st6" width="12" height="56.8"/>
	</g>
	<g class="st10">
		<rect x="603.9" y="381.5" class="st6" width="12" height="56.8"/>
	</g>
	<g class="st11">
		<rect x="627.5" y="381.5" class="st6" width="12" height="56.8"/>
	</g>
	
		<linearGradient id="SVGID_2_" gradientUnits="userSpaceOnUse" x1="725.6587" y1="337.3825" x2="725.6587" y2="399.7263" gradientTransform="matrix(1 0 0 -1 0 778.0787)">
		<stop  offset="0" style="stop-color:#808080;stop-opacity:0.25"/>
		<stop  offset="0.54" style="stop-color:#808080;stop-opacity:0.12"/>
		<stop  offset="1" style="stop-color:#808080;stop-opacity:0.1"/>
	</linearGradient>
	<circle class="st12" cx="725.7" cy="409.5" r="31.2"/>
	
		<linearGradient id="SVGID_3_" gradientUnits="userSpaceOnUse" x1="725.6587" y1="221.4329" x2="725.6587" y2="283.7766" gradientTransform="matrix(1 0 0 -1 0 778.0787)">
		<stop  offset="0" style="stop-color:#808080;stop-opacity:0.25"/>
		<stop  offset="0.54" style="stop-color:#808080;stop-opacity:0.12"/>
		<stop  offset="1" style="stop-color:#808080;stop-opacity:0.1"/>
	</linearGradient>
	<circle class="st13" cx="725.7" cy="525.5" r="31.2"/>
	
		<linearGradient id="SVGID_4_" gradientUnits="userSpaceOnUse" x1="725.6587" y1="106.2612" x2="725.6587" y2="168.6049" gradientTransform="matrix(1 0 0 -1 0 778.0787)">
		<stop  offset="0" style="stop-color:#808080;stop-opacity:0.25"/>
		<stop  offset="0.54" style="stop-color:#808080;stop-opacity:0.12"/>
		<stop  offset="1" style="stop-color:#808080;stop-opacity:0.1"/>
	</linearGradient>
	<circle class="st14" cx="725.7" cy="640.6" r="31.2"/>
	<circle class="st2" cx="725.7" cy="409.5" r="28.9"/>
	
		<linearGradient id="SVGID_5_" gradientUnits="userSpaceOnUse" x1="833.6989" y1="348.7913" x2="833.6989" y2="362.841" gradientTransform="matrix(1 0 0 -1 -268.41 709.0787)">
		<stop  offset="0" style="stop-color:#808080;stop-opacity:0.25"/>
		<stop  offset="0.54" style="stop-color:#808080;stop-opacity:0.12"/>
		<stop  offset="1" style="stop-color:#808080;stop-opacity:0.1"/>
	</linearGradient>
	<path class="st15" d="M624.4,360.3H510.1c-2.2,0-3.9-1.8-3.9-3.9v-6.2c0-2.2,1.8-3.9,3.9-3.9h114.2V360.3z"/>
	<path class="st3" d="M624.4,358.6H512.2c-2.2,0-3.9-1.8-3.9-3.9V351c0-2.2,1.8-3.9,3.9-3.9h112.2V358.6z"/>
	
		<linearGradient id="SVGID_6_" gradientUnits="userSpaceOnUse" x1="688.048" y1="352.3823" x2="688.048" y2="454.8788" gradientTransform="matrix(1 0 0 -1 -268.41 709.0787)">
		<stop  offset="0" style="stop-color:#808080;stop-opacity:0.25"/>
		<stop  offset="0.54" style="stop-color:#808080;stop-opacity:0.12"/>
		<stop  offset="1" style="stop-color:#808080;stop-opacity:0.1"/>
	</linearGradient>
	<path class="st16" d="M333.3,283.7l82.5,73l95.9-20.2l-7.4-21.6l-74.3,8.8l-74.3-65.2c-7-6.2-17.7-5.5-23.8,1.6
		c-0.4,0.4-0.8,0.9-1.1,1.4l0,0C325.7,268.4,326.9,278,333.3,283.7z"/>
	
		<linearGradient id="SVGID_7_" gradientUnits="userSpaceOnUse" x1="793.609" y1="372.6263" x2="793.609" y2="395.0332" gradientTransform="matrix(1 0 0 -1 -268.41 709.0787)">
		<stop  offset="0" style="stop-color:#808080;stop-opacity:0.25"/>
		<stop  offset="0.54" style="stop-color:#808080;stop-opacity:0.12"/>
		<stop  offset="1" style="stop-color:#808080;stop-opacity:0.1"/>
	</linearGradient>
	<path class="st17" d="M511.6,336.4c0,0,24.5,0.7,33.5-12.8c9-13.5-40.9-8.8-40.9-8.8L511.6,336.4z"/>
	
		<linearGradient id="SVGID_8_" gradientUnits="userSpaceOnUse" x1="322.4753" y1="541.9366" x2="322.4753" y2="626.9894" gradientTransform="matrix(1 0 0 -1 0 778.0787)">
		<stop  offset="0" style="stop-color:#808080;stop-opacity:0.25"/>
		<stop  offset="0.54" style="stop-color:#808080;stop-opacity:0.12"/>
		<stop  offset="1" style="stop-color:#808080;stop-opacity:0.1"/>
	</linearGradient>
	<circle class="st18" cx="322.5" cy="193.6" r="42.5"/>
	
		<linearGradient id="SVGID_9_" gradientUnits="userSpaceOnUse" x1="584.2131" y1="253.0528" x2="584.2131" y2="472.9209" gradientTransform="matrix(1 0 0 -1 -268.41 709.0787)">
		<stop  offset="0" style="stop-color:#808080;stop-opacity:0.25"/>
		<stop  offset="0.54" style="stop-color:#808080;stop-opacity:0.12"/>
		<stop  offset="1" style="stop-color:#808080;stop-opacity:0.1"/>
	</linearGradient>
	<path class="st19" d="M304.9,240.2c0,0-54.6,36.8-40.7,150.5c1.7,13.7,0.5,27.7-3.5,40.9l-7.1,23.3c0,0,120.1,2.7,123.5,0
		c2.1-1.7,0.5-44.5-5.4-103.9c-3.6-36.4,7.7-87-31-114.7L304.9,240.2z"/>
	
		<linearGradient id="SVGID_10_" gradientUnits="userSpaceOnUse" x1="345.0821" y1="97.1383" x2="345.0821" y2="324.5979" gradientTransform="matrix(1 0 0 -1 0 778.0787)">
		<stop  offset="0" style="stop-color:#808080;stop-opacity:0.25"/>
		<stop  offset="0.54" style="stop-color:#808080;stop-opacity:0.12"/>
		<stop  offset="1" style="stop-color:#808080;stop-opacity:0.1"/>
	</linearGradient>
	<polygon class="st20" points="377.1,453.5 430.5,566.2 436.5,680.9 398.7,680.9 382.5,562.1 350.1,504.8 317.7,680.9 279.9,680.9 
		291.4,550 253.6,454.8 	"/>
	
		<linearGradient id="SVGID_11_" gradientUnits="userSpaceOnUse" x1="703.3887" y1="-13.7045" x2="703.3887" y2="28.1383" gradientTransform="matrix(1 0 0 -1 -268.41 709.0787)">
		<stop  offset="0" style="stop-color:#808080;stop-opacity:0.25"/>
		<stop  offset="0.54" style="stop-color:#808080;stop-opacity:0.12"/>
		<stop  offset="1" style="stop-color:#808080;stop-opacity:0.1"/>
	</linearGradient>
	<path class="st21" d="M436.5,680.9l11.5,17.5c0,0,38.5,14.9,21.6,24.3H396v-41.8H436.5z"/>
	
		<linearGradient id="SVGID_12_" gradientUnits="userSpaceOnUse" x1="583.9189" y1="-13.7045" x2="583.9189" y2="28.1383" gradientTransform="matrix(1 0 0 -1 -268.41 709.0787)">
		<stop  offset="0" style="stop-color:#808080;stop-opacity:0.25"/>
		<stop  offset="0.54" style="stop-color:#808080;stop-opacity:0.12"/>
		<stop  offset="1" style="stop-color:#808080;stop-opacity:0.1"/>
	</linearGradient>
	<path class="st22" d="M317.1,680.9l11.5,17.5c0,0,38.5,14.9,21.6,24.3h-73.6v-41.8H317.1z"/>
	<g class="st23">
		
			<linearGradient id="SVGID_13_" gradientUnits="userSpaceOnUse" x1="602.3536" y1="477.1327" x2="602.3536" y2="558.6808" gradientTransform="matrix(1 0 0 -1 -268.41 709.0787)">
			<stop  offset="0" style="stop-color:#808080;stop-opacity:0.25"/>
			<stop  offset="0.54" style="stop-color:#808080;stop-opacity:0.12"/>
			<stop  offset="1" style="stop-color:#808080;stop-opacity:0.1"/>
		</linearGradient>
		<path class="st24" d="M323.2,150.4c-7.3,0-14.6,1.9-20.9,5.5c21.5-9.4,46.6,0.5,56,22c8.7,20,0.9,43.3-18.1,54
			c21.6-9.3,31.5-34.4,22.1-55.9C355.4,160.5,340.1,150.4,323.2,150.4L323.2,150.4z"/>
	</g>
	
		<linearGradient id="SVGID_14_" gradientUnits="userSpaceOnUse" x1="587.2554" y1="483.5368" x2="587.2554" y2="585.0516" gradientTransform="matrix(1 0 0 -1 -268.41 709.0787)">
		<stop  offset="0" style="stop-color:#808080;stop-opacity:0.25"/>
		<stop  offset="0.54" style="stop-color:#808080;stop-opacity:0.12"/>
		<stop  offset="1" style="stop-color:#808080;stop-opacity:0.1"/>
	</linearGradient>
	<path class="st25" d="M374.2,124l-11.8,18.1c-4.3,6.5-10.4,13.9-18.1,12.4c-3.6-0.7-6.4-3.3-9.2-5.5c-9.3-7.4-20.8-12.4-32.6-12.4
		c-11.8-0.1-24,5.3-30.6,15c-4.9,7.2-6.6,16.1-7.6,24.8c-2,17.4,0,37.9,14.5,47.7c1.2,0.9,2.6,1.5,4.1,1.5c1.6-0.1,2.8-1.1,4-2.1
		c18.2-15.2,28.3-40,50.2-50.4c9.7-4.6,23.7-4.6,31.5-12.5C379.9,149.1,367.2,134.6,374.2,124z"/>
	<g class="st23">
		
			<linearGradient id="SVGID_15_" gradientUnits="userSpaceOnUse" x1="590.3352" y1="554.4154" x2="590.3352" y2="572.5656" gradientTransform="matrix(1 0 0 -1 -268.41 709.0787)">
			<stop  offset="0" style="stop-color:#808080;stop-opacity:0.25"/>
			<stop  offset="0.54" style="stop-color:#808080;stop-opacity:0.12"/>
			<stop  offset="1" style="stop-color:#808080;stop-opacity:0.1"/>
		</linearGradient>
		<path class="st26" d="M330.3,149c2.8,2.3,5.7,4.8,9.2,5.5c1.4,0.3,2.9,0.3,4.4-0.1c-3.4-0.8-6.1-3.3-8.9-5.4
			c-9.3-7.4-20.8-12.4-32.6-12.4c-0.8,0-1.7,0-2.5,0.1C311,137.2,321.7,142.1,330.3,149z"/>
		
			<linearGradient id="SVGID_16_" gradientUnits="userSpaceOnUse" x1="595.5449" y1="483.5337" x2="595.5449" y2="585.0516" gradientTransform="matrix(1 0 0 -1 -268.41 709.0787)">
			<stop  offset="0" style="stop-color:#808080;stop-opacity:0.25"/>
			<stop  offset="0.54" style="stop-color:#808080;stop-opacity:0.12"/>
			<stop  offset="1" style="stop-color:#808080;stop-opacity:0.1"/>
		</linearGradient>
		<path class="st27" d="M374.2,124l-6.8,10.4c0.7,8.6,4.4,18.1-3.6,26.1c-7.8,7.9-21.8,7.9-31.5,12.5c-21.9,10.5-32,35.2-50.2,50.4
			c-0.6,0.5-1.3,1-2,1.4c0.8,0.5,1.8,0.7,2.7,0.6c1.6-0.1,2.8-1.1,4-2.1c18.2-15.2,28.3-40,50.2-50.4c9.7-4.6,23.7-4.6,31.5-12.5
			C379.9,149.1,367.2,134.6,374.2,124z"/>
	</g>
	<g class="st23">
		
			<linearGradient id="SVGID_17_" gradientUnits="userSpaceOnUse" x1="623.6757" y1="253.0294" x2="623.6757" y2="472.913" gradientTransform="matrix(1 0 0 -1 -268.41 709.0787)">
			<stop  offset="0" style="stop-color:#808080;stop-opacity:0.25"/>
			<stop  offset="0.54" style="stop-color:#808080;stop-opacity:0.12"/>
			<stop  offset="1" style="stop-color:#808080;stop-opacity:0.1"/>
		</linearGradient>
		<path class="st28" d="M371.8,350.9c-3.6-36.4,7.7-87-31-114.7l-8.2,0.9c37.2,27.9,26.2,77.8,29.8,113.8
			c5.9,59.4,7.5,102.3,5.4,103.9c-1,0.8-12.9,1.1-28.9,1.2c20.6,0.1,37.2-0.2,38.4-1.2C379.2,453.2,377.6,410.3,371.8,350.9z"/>
	</g>
	
		<linearGradient id="SVGID_18_" gradientUnits="userSpaceOnUse" x1="664.2641" y1="337.9475" x2="664.2641" y2="440.4283" gradientTransform="matrix(1 0 0 -1 -268.41 709.0787)">
		<stop  offset="0" style="stop-color:#808080;stop-opacity:0.25"/>
		<stop  offset="0.54" style="stop-color:#808080;stop-opacity:0.12"/>
		<stop  offset="1" style="stop-color:#808080;stop-opacity:0.1"/>
	</linearGradient>
	<path class="st29" d="M309.5,298.1l82.5,73l95.9-20.2l-7.5-21.6l-74.2,8.8l-74.3-65.2c-7-6.2-17.7-5.5-23.8,1.6
		c-0.4,0.4-0.8,0.9-1.1,1.4l0,0C301.9,282.8,303.1,292.4,309.5,298.1z"/>
	
		<linearGradient id="SVGID_19_" gradientUnits="userSpaceOnUse" x1="769.8193" y1="358.1836" x2="769.8193" y2="380.5905" gradientTransform="matrix(1 0 0 -1 -268.41 709.0787)">
		<stop  offset="0" style="stop-color:#808080;stop-opacity:0.25"/>
		<stop  offset="0.54" style="stop-color:#808080;stop-opacity:0.12"/>
		<stop  offset="1" style="stop-color:#808080;stop-opacity:0.1"/>
	</linearGradient>
	<path class="st30" d="M487.8,350.9c0,0,24.5,0.7,33.5-12.8c9-13.5-40.9-8.8-40.9-8.8L487.8,350.9z"/>
	
		<linearGradient id="SVGID_20_" gradientUnits="userSpaceOnUse" x1="322.4674" y1="523.7144" x2="322.4674" y2="560.1588" gradientTransform="matrix(1 0 0 -1 0 778.0787)">
		<stop  offset="0" style="stop-color:#808080;stop-opacity:0.25"/>
		<stop  offset="0.54" style="stop-color:#808080;stop-opacity:0.12"/>
		<stop  offset="1" style="stop-color:#808080;stop-opacity:0.1"/>
	</linearGradient>
	<path class="st31" d="M320.3,217.9h4.3c8.9,0,16.1,7.2,16.1,16.1v4.3c0,8.9-7.2,16.1-16.1,16.1h-4.3c-8.9,0-16.1-7.2-16.1-16.1V234
		C304.2,225.1,311.4,217.9,320.3,217.9z"/>
	<g class="st23">
		
			<linearGradient id="SVGID_21_" gradientUnits="userSpaceOnUse" x1="329.3194" y1="97.1383" x2="329.3194" y2="273.3022" gradientTransform="matrix(1 0 0 -1 0 778.0787)">
			<stop  offset="0" style="stop-color:#808080;stop-opacity:0.25"/>
			<stop  offset="0.54" style="stop-color:#808080;stop-opacity:0.12"/>
			<stop  offset="1" style="stop-color:#808080;stop-opacity:0.1"/>
		</linearGradient>
		<polygon class="st32" points="342.7,504.8 310.3,680.9 317.7,680.9 348.3,514.7 		"/>
		
			<linearGradient id="SVGID_22_" gradientUnits="userSpaceOnUse" x1="403.1473" y1="97.1383" x2="403.1473" y2="324.5979" gradientTransform="matrix(1 0 0 -1 0 778.0787)">
			<stop  offset="0" style="stop-color:#808080;stop-opacity:0.25"/>
			<stop  offset="0.54" style="stop-color:#808080;stop-opacity:0.12"/>
			<stop  offset="1" style="stop-color:#808080;stop-opacity:0.1"/>
		</linearGradient>
		<polygon class="st33" points="430.5,566.2 377.1,453.5 369.8,453.6 423,566.2 429.1,680.9 436.5,680.9 		"/>
	</g>
	<g class="st23">
		
			<linearGradient id="SVGID_23_" gradientUnits="userSpaceOnUse" x1="721.9432" y1="-13.7123" x2="721.9432" y2="28.1304" gradientTransform="matrix(1 0 0 -1 -268.41 709.0787)">
			<stop  offset="0" style="stop-color:#808080;stop-opacity:0.25"/>
			<stop  offset="0.54" style="stop-color:#808080;stop-opacity:0.12"/>
			<stop  offset="1" style="stop-color:#808080;stop-opacity:0.1"/>
		</linearGradient>
		<path class="st34" d="M448,698.5l-11.5-17.5h-3.4l11.5,17.5c0,0,38.5,14.9,21.6,24.3h3.4C486.5,713.4,448,698.5,448,698.5z"/>
	</g>
	<g class="st23">
		
			<linearGradient id="SVGID_24_" gradientUnits="userSpaceOnUse" x1="605.8531" y1="-13.7123" x2="605.8531" y2="28.1304" gradientTransform="matrix(1 0 0 -1 -268.41 709.0787)">
			<stop  offset="0" style="stop-color:#808080;stop-opacity:0.25"/>
			<stop  offset="0.54" style="stop-color:#808080;stop-opacity:0.12"/>
			<stop  offset="1" style="stop-color:#808080;stop-opacity:0.1"/>
		</linearGradient>
		<path class="st35" d="M331.9,698.5l-11.5-17.5h-3.4l11.5,17.5c0,0,38.5,14.9,21.6,24.3h3.4C370.4,713.4,331.9,698.5,331.9,698.5z"
			/>
	</g>
	<g class="st23">
		
			<linearGradient id="SVGID_25_" gradientUnits="userSpaceOnUse" x1="457.4957" y1="441.3254" x2="457.4957" y2="449.4661" gradientTransform="matrix(1 0 0 -1 0 778.0787)">
			<stop  offset="0" style="stop-color:#808080;stop-opacity:0.25"/>
			<stop  offset="0.54" style="stop-color:#808080;stop-opacity:0.12"/>
			<stop  offset="1" style="stop-color:#808080;stop-opacity:0.1"/>
		</linearGradient>
		<polygon class="st36" points="492.7,332.8 491.2,328.6 422.3,336.8 		"/>
	</g>
	
		<linearGradient id="SVGID_26_" gradientUnits="userSpaceOnUse" x1="318.126" y1="454.3929" x2="318.126" y2="524.0444" gradientTransform="matrix(1 0 0 -1 0 778.0787)">
		<stop  offset="0" style="stop-color:#808080;stop-opacity:0.25"/>
		<stop  offset="0.54" style="stop-color:#808080;stop-opacity:0.12"/>
		<stop  offset="1" style="stop-color:#808080;stop-opacity:0.1"/>
	</linearGradient>
	<polygon class="st37" points="287.5,297.4 310.5,254 348.7,268.5 310.5,323.7 	"/>
	<path class="st38" d="M335.1,287.5l80.2,71l93.2-19.7l-7.2-21l-72.2,8.5l-72.3-63.5c-6.8-6-17.2-5.3-23.2,1.5
		c-0.4,0.4-0.7,0.9-1.1,1.4l0,0C327.8,272.6,328.9,282,335.1,287.5z"/>
	<path class="st38" d="M508.6,338.8c0,0,23.8,0.7,32.6-12.5c8.8-13.1-39.8-8.5-39.8-8.5L508.6,338.8z"/>
	<circle class="st38" cx="324.6" cy="199.9" r="41.4"/>
	<path class="st39" d="M307.5,245.2c0,0-53.1,35.8-39.6,146.3c1.6,13.4,0.5,26.9-3.4,39.8l-6.9,22.6c0,0,116.9,2.6,120.1,0
		c2-1.6,0.4-43.3-5.2-101.1c-3.5-35.4,7.5-84.7-30.2-111.6L307.5,245.2z"/>
	<polygon class="st40" points="377.8,452.7 429.6,562.3 435.5,673.9 398.8,673.9 383,558.4 351.5,502.5 320,673.9 283.2,673.9 
		294.4,546.5 257.6,454 	"/>
	<path class="st39" d="M435.5,673.9l11.2,17.1c0,0,37.4,14.4,21,23.6h-71.6v-40.7H435.5z"/>
	<path class="st39" d="M319.3,673.9l11.2,17.1c0,0,37.4,14.4,21,23.6H280v-40.7H319.3z"/>
	<path class="st41" d="M325.3,157.9c-7.1,0-14.2,1.8-20.4,5.4c21-8.9,45.3,0.8,54.3,21.8c8.2,19.3,0.7,41.6-17.4,52.1
		c21-9.1,30.6-33.5,21.5-54.4C356.6,167.7,341.7,157.9,325.3,157.9L325.3,157.9z"/>
	<path class="st39" d="M374.9,132.2l-11.5,17.6c-4.1,6.3-10.1,13.5-17.5,12c-3.5-0.7-6.2-3.1-9-5.4c-9-7.2-20.2-12-31.7-12.1
		c-11.5-0.1-23.3,5.1-29.9,14.6c-4.8,7-6.5,15.7-7.4,24.1c-1.9,16.9,0,36.9,14.1,46.4c1.1,0.9,2.5,1.4,4,1.4c1.5-0.1,2.8-1.1,3.9-2
		c17.7-14.8,27.5-38.9,48.8-49c9.4-4.5,23.1-4.5,30.6-12.1C380.5,156.6,368.1,142.5,374.9,132.2z"/>
	<g class="st23">
		<path class="st42" d="M332.2,156.5c2.8,2.2,5.5,4.7,9,5.4c1.4,0.3,2.9,0.3,4.3-0.1c-3.3-0.8-6-3.1-8.6-5.3
			c-9-7.2-20.2-12-31.7-12.1c-0.8,0-1.6,0-2.4,0.1C313.5,145.1,323.8,149.8,332.2,156.5z"/>
		<path class="st42" d="M374.9,132.2l-6.6,10.2c0.6,8.4,4.3,17.6-3.5,25.4c-7.6,7.6-21.2,7.6-30.6,12.1
			c-21.3,10.2-31.1,34.2-48.8,49c-0.6,0.5-1.3,1-2,1.4c0.8,0.4,1.7,0.7,2.6,0.6c1.5-0.1,2.8-1.1,3.9-2c17.7-14.8,27.5-38.9,48.8-49
			c9.4-4.5,23.1-4.5,30.6-12.1C380.5,156.6,368.1,142.5,374.9,132.2z"/>
	</g>
	<path class="st41" d="M372.5,352.9c-3.5-35.4,7.5-84.7-30.2-111.6l-8,0.9c36.2,27.1,25.5,75.7,29,110.7
		c5.7,57.8,7.3,99.5,5.2,101.1c-1,0.8-12.6,1.1-28.1,1.2c20.1,0.1,36.1-0.2,37.3-1.2C379.8,452.3,378.2,410.7,372.5,352.9z"/>
	<path class="st38" d="M312,301.6l80.2,71l93.2-19.7l-7.2-21l-72.2,8.5l-72.3-63.5c-6.8-6-17.2-5.3-23.2,1.5
		c-0.4,0.4-0.7,0.9-1.1,1.4l0,0C304.6,286.7,305.7,296.1,312,301.6z"/>
	<path class="st38" d="M485.4,352.9c0,0,23.8,0.7,32.6-12.5c8.8-13.1-39.8-8.5-39.8-8.5L485.4,352.9z"/>
	<path class="st38" d="M323,223.5h3.3c8.9,0,16.1,7.2,16.1,16.1v3.3c0,8.9-7.2,16.1-16.1,16.1H323c-8.9,0-16.1-7.2-16.1-16.1v-3.3
		C306.9,230.7,314.1,223.5,323,223.5z"/>
	<g class="st23">
		<polygon class="st42" points="344.3,502.5 312.8,673.9 320,673.9 349.7,512.2 		"/>
		<polygon class="st42" points="429.6,562.3 377.8,452.7 370.6,452.7 422.4,562.3 428.3,673.9 435.5,673.9 		"/>
	</g>
	<path class="st41" d="M446.7,691l-11.2-17.1h-3.3l11.2,17.1c0,0,37.4,14.4,21,23.6h3.3C484.1,705.4,446.7,691,446.7,691z"/>
	<path class="st41" d="M333.8,691l-11.2-17.1h-3.3l11.2,17.1c0,0,37.4,14.4,21,23.6h3.3C371.2,705.4,333.8,691,333.8,691z"/>
	<polygon class="st41" points="490.1,335.3 488.7,331.2 421.7,339.1 	"/>
	<polygon class="st39" points="290.6,300.8 312.9,258.7 350.1,272.7 312.9,326.4 	"/>
	
		<linearGradient id="SVGID_27_" gradientUnits="userSpaceOnUse" x1="923.8431" y1="353.836" x2="923.8431" y2="454.3128" gradientTransform="matrix(1 0 0 -1 -268.41 709.0787)">
		<stop  offset="0" style="stop-color:#808080;stop-opacity:0.25"/>
		<stop  offset="0.54" style="stop-color:#808080;stop-opacity:0.12"/>
		<stop  offset="1" style="stop-color:#808080;stop-opacity:0.1"/>
	</linearGradient>
	<path class="st43" d="M616.5,348.3l67.6-91.9c1.3-1.7,3.7-2.1,5.5-0.8c0,0,0,0,0,0l3.1,2.3c1.7,1.3,2.1,3.7,0.8,5.5c0,0,0,0,0,0
		L626,355.2L616.5,348.3z"/>
	<path class="st3" d="M617.9,349.2l66.4-90.4c1.3-1.7,3.7-2.1,5.5-0.8c0,0,0,0,0,0l0.3,0.2c1.7,1.3,2.1,3.7,0.8,5.5c0,0,0,0,0,0
		l-66.4,90.4L617.9,349.2z"/>
</g>
</svg>
